<svg xmlns="http://www.w3.org/2000/svg" viewBox="0 0 16 16" shape-rendering="crispEdges">
  <!-- « R » en pixel-art, clin d'œil au logo Silkscreen -->
  <g fill="#e87800">
    <rect x="3" y="1" width="2" height="2"/><rect x="5" y="1" width="2" height="2"/><rect x="7" y="1" width="2" height="2"/><rect x="9" y="1" width="2" height="2"/>
    <rect x="3" y="3" width="2" height="2"/><rect x="11" y="3" width="2" height="2"/>
    <rect x="3" y="5" width="2" height="2"/><rect x="11" y="5" width="2" height="2"/>
    <rect x="3" y="7" width="2" height="2"/><rect x="5" y="7" width="2" height="2"/><rect x="7" y="7" width="2" height="2"/><rect x="9" y="7" width="2" height="2"/>
    <rect x="3" y="9" width="2" height="2"/><rect x="7" y="9" width="2" height="2"/>
    <rect x="3" y="11" width="2" height="2"/><rect x="9" y="11" width="2" height="2"/>
    <rect x="3" y="13" width="2" height="2"/><rect x="11" y="13" width="2" height="2"/>
  </g>
</svg>
